<?xml version="1.0" encoding="utf-8"?>
<svg version="1.1" id="Шар_1" xmlns="http://www.w3.org/2000/svg" xmlns:xlink="http://www.w3.org/1999/xlink" x="0px" y="0px"
	 viewBox="0 0 115 38" style="enable-background:new 0 0 115 38;" xml:space="preserve">
<style type="text/css">
	.st0{fill:#414042;}
	.st1{fill-rule:evenodd;clip-rule:evenodd;fill:#00AEEF;}
	.st2{fill-rule:evenodd;clip-rule:evenodd;fill:#0056A7;}
</style>
<path id="XMLID_27_" class="st0" d="M44.3,17.2c-0.6,0.4-1.5,0.5-2.5,0.5c-1.3,0-2.3-0.4-3.1-1.2c-0.8-0.8-1.2-1.8-1.2-3.1
	c0-1.5,0.4-2.6,1.3-3.4c0.9-0.8,2-1.3,3.4-1.3c0.9,0,1.6,0.1,2.1,0.4v2c-0.6-0.4-1.2-0.6-1.9-0.6c-0.8,0-1.4,0.3-1.9,0.7
	c-0.5,0.5-0.7,1.2-0.7,2c0,0.8,0.2,1.5,0.7,2c0.5,0.5,1.1,0.7,1.9,0.7c0.7,0,1.4-0.2,2-0.7V17.2z"/>
<path id="XMLID_24_" class="st0" d="M45,13.3c0-1.4,0.4-2.5,1.2-3.3c0.8-0.8,1.9-1.2,3.4-1.2c1.4,0,2.4,0.4,3.2,1.2
	c0.8,0.8,1.2,1.9,1.2,3.2c0,1.4-0.4,2.5-1.2,3.3c-0.8,0.8-1.9,1.3-3.3,1.3c-1.4,0-2.5-0.4-3.3-1.2C45.4,15.8,45,14.7,45,13.3
	L45,13.3z M47.3,13.3c0,1.8,0.7,2.7,2.2,2.7c1.4,0,2.2-0.9,2.2-2.8c0-1.8-0.7-2.7-2.2-2.7c-0.7,0-1.3,0.2-1.6,0.7
	C47.5,11.8,47.3,12.5,47.3,13.3z"/>
<path id="XMLID_23_" class="st0" d="M68.5,17.6h-2.3v-4.9c0-1.4-0.5-2.1-1.5-2.1c-0.5,0-0.9,0.2-1.2,0.6c-0.3,0.4-0.5,0.9-0.5,1.5
	v4.8h-2.3v-5c0-1.3-0.5-2-1.5-2c-0.5,0-0.9,0.2-1.2,0.6c-0.3,0.4-0.5,0.9-0.5,1.6v4.8h-2.3V9h2.3v1.4h0c0.6-1,1.6-1.6,2.7-1.6
	c1.2,0,2,0.5,2.5,1.6c0.7-1.1,1.6-1.6,2.9-1.6c1.9,0,2.8,1.2,2.8,3.5V17.6z"/>
<path id="XMLID_22_" class="st0" d="M83.3,17.6H81v-4.9c0-1.4-0.5-2.1-1.5-2.1c-0.5,0-0.9,0.2-1.2,0.6c-0.3,0.4-0.5,0.9-0.5,1.5v4.8
	h-2.3v-5c0-1.3-0.5-2-1.5-2c-0.5,0-0.9,0.2-1.2,0.6c-0.3,0.4-0.5,0.9-0.5,1.6v4.8h-2.3V9h2.3v1.4h0c0.6-1,1.6-1.6,2.7-1.6
	c1.2,0,2,0.5,2.5,1.6c0.7-1.1,1.6-1.6,2.9-1.6c1.9,0,2.8,1.2,2.8,3.5V17.6z"/>
<path id="XMLID_19_" class="st0" d="M92.3,13.9h-5.7c0.1,1.5,0.9,2.2,2.5,2.2c1,0,1.8-0.3,2.5-0.8v1.7c-0.8,0.5-1.8,0.7-3.1,0.7
	c-1.3,0-2.4-0.4-3.1-1.2c-0.7-0.8-1.1-1.9-1.1-3.2c0-1.4,0.4-2.5,1.2-3.3c0.8-0.9,1.8-1.3,3-1.3c1.2,0,2.1,0.4,2.8,1.1
	c0.7,0.7,1,1.7,1,3V13.9L92.3,13.9z M90.2,12.4c0-1.4-0.6-2-1.7-2c-0.5,0-0.9,0.2-1.2,0.6c-0.4,0.4-0.6,0.9-0.7,1.5H90.2z"/>
<path id="XMLID_18_" class="st0" d="M101.4,17.6h-2.3v-4.8c0-1.5-0.5-2.2-1.6-2.2c-0.5,0-1,0.2-1.3,0.6c-0.3,0.4-0.5,0.9-0.5,1.5
	v4.9h-2.3V9h2.3v1.4h0c0.6-1.1,1.6-1.6,2.8-1.6c1.9,0,2.9,1.2,2.9,3.5V17.6z"/>
<path id="XMLID_17_" class="st0" d="M107.8,17.5c-0.4,0.2-0.9,0.3-1.6,0.3c-1.8,0-2.6-0.9-2.6-2.8v-4.3h-1.4V9h1.4V7.1l2.3-0.7V9h2
	v1.7h-2v3.9c0,0.9,0.4,1.4,1.1,1.4c0.3,0,0.6-0.1,0.9-0.3V17.5z"/>
<path id="XMLID_16_" class="st0" d="M108.5,15.4c0.8,0.5,1.7,0.8,2.5,0.8c1.1,0,1.6-0.3,1.6-0.9c0-0.4-0.4-0.8-1.3-1.1
	c-1.2-0.4-2-0.8-2.3-1.2c-0.3-0.4-0.5-0.9-0.5-1.5c0-0.8,0.3-1.5,1-1.9c0.7-0.5,1.5-0.7,2.6-0.7c0.7,0,1.5,0.1,2.2,0.4V11
	c-0.7-0.4-1.4-0.6-2.2-0.6c-0.4,0-0.8,0.1-1,0.2c-0.3,0.2-0.4,0.4-0.4,0.6c0,0.4,0.4,0.8,1.1,1c0.8,0.3,1.4,0.5,1.8,0.7
	c0.4,0.2,0.7,0.5,0.9,0.8c0.2,0.3,0.3,0.7,0.3,1.2c0,0.9-0.3,1.5-1,2c-0.7,0.5-1.6,0.7-2.7,0.7c-1,0-1.8-0.2-2.5-0.5V15.4z"/>
<path id="XMLID_13_" class="st0" d="M46.1,33.9h-2.3v-1.3h0c-0.6,1-1.5,1.5-2.7,1.5c-1.1,0-1.9-0.4-2.6-1.2c-0.6-0.8-1-1.8-1-3.1
	c0-1.4,0.4-2.5,1.1-3.4c0.7-0.9,1.7-1.3,2.8-1.3c1.1,0,1.9,0.4,2.4,1.2h0v-5.2h2.3V33.9L46.1,33.9z M43.9,29c0-0.6-0.2-1.1-0.6-1.5
	c-0.4-0.4-0.8-0.6-1.4-0.6c-0.7,0-1.2,0.3-1.5,0.8c-0.4,0.5-0.6,1.2-0.6,2.1c0,0.8,0.2,1.5,0.5,1.9c0.4,0.5,0.9,0.7,1.5,0.7
	c0.6,0,1.1-0.2,1.5-0.7c0.4-0.5,0.6-1.1,0.6-1.8V29z"/>
<path id="XMLID_10_" class="st0" d="M48.1,25.8c0.4-0.2,0.9-0.4,1.5-0.5c0.6-0.1,1.2-0.2,1.7-0.2c2.3,0,3.5,1.2,3.5,3.5v5.3h-2.2
	v-1.3h0c-0.6,1-1.4,1.5-2.6,1.5c-0.8,0-1.5-0.2-2-0.7c-0.5-0.5-0.7-1.1-0.7-1.9c0-1.6,1-2.6,2.9-2.8l2.4-0.3c0-1.1-0.5-1.6-1.6-1.6
	c-1,0-2,0.3-2.9,1V25.8L48.1,25.8z M50.8,30c-1,0.1-1.5,0.6-1.5,1.3c0,0.3,0.1,0.6,0.4,0.8c0.2,0.2,0.5,0.3,0.9,0.3
	c0.5,0,1-0.2,1.3-0.6c0.4-0.4,0.5-0.9,0.5-1.4v-0.7L50.8,30z"/>
<path id="XMLID_7_" class="st0" d="M56.1,22.5c0-0.3,0.1-0.6,0.4-0.9c0.2-0.2,0.6-0.4,1-0.4c0.4,0,0.7,0.1,1,0.3
	c0.3,0.2,0.4,0.5,0.4,0.9c0,0.4-0.1,0.6-0.4,0.9c-0.3,0.2-0.6,0.4-1,0.4c-0.4,0-0.7-0.1-1-0.4C56.2,23.1,56.1,22.8,56.1,22.5
	L56.1,22.5z M56.3,33.9v-8.6h2.3v8.6H56.3z"/>
<rect id="XMLID_6_" x="60.2" y="21.2" class="st0" width="2.3" height="12.7"/>
<path id="XMLID_5_" class="st0" d="M72,25.3l-3.6,9.5c-0.8,2.1-2,3.1-3.6,3.1c-0.5,0-1-0.1-1.4-0.2v-1.9c0.3,0.2,0.7,0.3,1.1,0.3
	c0.7,0,1.2-0.3,1.5-1l0.5-1.2l-3.4-8.6h2.5l1.8,5.6c0.1,0.2,0.1,0.5,0.2,1h0c0-0.3,0.1-0.6,0.2-1l1.9-5.6H72z"/>
<path id="XMLID_4_" class="st1" d="M26.6,20.1v-20h5.2v20c0,8.3-6.4,15.1-14.5,15.7v-5.3C22.5,29.9,26.6,25.4,26.6,20.1z"/>
<path id="XMLID_3_" class="st2" d="M16,4.3c3.9,0,7.5,1.4,10.3,3.8l-3.5,3.9c-1.8-1.5-4.2-2.4-6.7-2.4c-5.8,0-10.6,4.7-10.6,10.6
	c0,5.4,4,9.8,9.2,10.5v5.3C6.6,35.1,0.2,28.3,0.2,20.1C0.2,11.3,7.3,4.3,16,4.3z"/>
<polygon id="XMLID_2_" class="st2" points="2.1,27 8.6,33.5 0.3,35.6 "/>
</svg>
